<svg xmlns="http://www.w3.org/2000/svg" viewBox="0 0 512 512"><defs><style>.cls-1{fill:#cfd6d3;}.cls-2{fill:#00a551;}.cls-3{opacity:0;}.cls-4{fill:#5b4277;}</style></defs><title>falĉilo</title><g id="Layer_2" data-name="Layer 2"><rect class="cls-1" width="512" height="512" rx="116" ry="116"/></g><g id="Layer_3" data-name="Layer 3"><polygon class="cls-2" points="322.67 277 391.88 324.11 370.67 240.33 434.67 185.67 352.33 181 322.67 100.11 293 181 210.67 185.67 274.67 240.33 253.45 324.11 322.67 277"/></g><g id="Layer_1" data-name="Layer 1"><path class="cls-3" d="M0,0H512V512H0Z"/><path class="cls-4" d="M296.63,25.41c-63.79.39-135.81,14.68-206,32.84-3.47,34.08,2.23,68.91,14,104.25,76.55-86.56,289-117.67,382.1-34.5C456,50.47,384,24.87,296.62,25.41Zm-231,36L27.91,71c5.64,78,28.55,132.39,60.44,174.47-16.54,10.35-40.69,19.67-68.78,26.84,5.66,6.6,14.25,16.18,30.53,18.53,24.85-4.33,39.91-15,53.75-26.59,76.24,85.14,190.22,119,253.13,224.22l49.44-.13C291,275.32,81,364.8,65.66,61.44Z"/></g></svg>